<?xml version="1.0" encoding="UTF-8"?>
<svg version="1.1" xmlns="http://www.w3.org/2000/svg" width="800" height="800">
<style>path:first-of-type{fill:transparent !important;}</style>
<path d="M0 0 C264 0 528 0 800 0 C800 264 800 528 800 800 C536 800 272 800 0 800 C0 536 0 272 0 0 Z " fill="#F6F6F6" transform="translate(0,0)"/>
<path d="M0 0 C4.53458696 3.3958566 6.93954902 7.41082954 7.84375 13.08203125 C9.99202427 18.44700342 13.65790549 20.18353682 18.5 23.0625 C20.32472563 24.19579886 22.14893996 25.32992136 23.97265625 26.46484375 C24.87773926 27.01897949 25.78282227 27.57311523 26.71533203 28.14404297 C30.34569832 30.38887747 33.89531316 32.74436087 37.4375 35.125 C38.34350952 35.72562256 38.34350952 35.72562256 39.26782227 36.33837891 C43.69411471 39.28352102 47.96669063 42.40580079 52.1640625 45.66796875 C55.02046232 47.10655557 56.29856835 46.70225448 59.3125 45.75 C61.02937215 45.08411033 62.73751959 44.39540229 64.4375 43.6875 C72.24094251 40.82798348 78.93563786 40.55230242 86.6875 43.6875 C87.45835937 44.04714844 88.22921875 44.40679687 89.0234375 44.77734375 C91.53992818 45.84663757 93.57869119 46.53507792 96.3125 46.75 C98.56413997 45.7025888 98.56413997 45.7025888 100.6875 43.9375 C104.88502692 40.80334657 109.12984473 37.82214125 113.5 34.9375 C114.78279555 34.08760694 116.06534396 33.23734077 117.34765625 32.38671875 C117.99621582 31.95665527 118.64477539 31.5265918 119.31298828 31.08349609 C121.36022788 29.71816976 123.39784022 28.33941631 125.43359375 26.95703125 C126.10430908 26.50368408 126.77502441 26.05033691 127.46606445 25.58325195 C128.74702879 24.71695521 130.02565569 23.84718846 131.30151367 22.97338867 C134.5341407 20.79465606 137.62484879 19.03024117 141.3125 17.75 C141.395 16.739375 141.4775 15.72875 141.5625 14.6875 C142.57400771 7.90766452 146.15629815 3.2047123 151.40234375 -0.9609375 C157.45891154 -5.04819183 164.09062265 -6.50552753 171.3125 -5.25 C179.27196758 -2.50639564 185.26076623 1.23907851 189.3125 8.75 C191.4954547 15.2988641 191.73352239 24.19267549 189.1484375 30.6640625 C186.99418709 33.96724647 185.02946249 36.26623889 181.74237061 38.48416138 C179.08798738 40.53666089 179.08798738 40.53666089 178.66412354 43.54440308 C178.65411316 44.61884674 178.64410278 45.69329041 178.63378906 46.80029297 C178.61157288 48.02191132 178.58935669 49.24352966 178.56646729 50.50216675 C178.57031433 51.8188736 178.57416138 53.13558044 178.578125 54.4921875 C178.569672 55.86215982 178.56003072 57.23212528 178.54925537 58.6020813 C178.53287123 61.47211999 178.53556515 64.34138732 178.55078125 67.21142578 C178.56804819 70.87973625 178.5309657 74.5451794 178.47851944 78.21307182 C178.44534287 81.04262673 178.444853 83.87149863 178.45366669 86.70120621 C178.45313419 88.70755894 178.42241805 90.71383067 178.39117432 92.71994019 C178.2861381 99.15528132 178.2861381 99.15528132 180.84289551 104.82623291 C182.64982309 106.42479265 182.64982309 106.42479265 184.57342529 107.58816528 C187.91578351 109.82111583 189.28916363 112.95763582 190.3125 116.75 C191.451455 125.75419138 190.70378996 133.28731968 185.3125 140.75 C180.99743505 145.65779365 175.68566566 148.39629209 169.2578125 149.0703125 C160.84532251 149.36173825 155.34297064 148.47153974 149.12109375 142.7265625 C143.51578474 136.85051406 141.36261256 131.98964859 140.9375 123.875 C141.0844213 118.49604798 142.33835836 114.24488447 145.3125 109.75 C146.65735639 108.75213635 148.0284763 107.78897695 149.41992188 106.85717773 C152.13588356 104.53539506 153.18625326 103.28281781 154.01782227 99.77322388 C154.23793556 96.06543393 154.21183227 92.43517711 154.09375 88.72265625 C154.07880759 87.36505992 154.06743 86.00742011 154.05944824 84.64976501 C154.02906732 81.09596238 153.95064036 77.54482357 153.86181641 73.99206543 C153.77961228 70.35900913 153.74336405 66.72551737 153.703125 63.09179688 C153.61762137 55.97678225 153.48129535 48.86356605 153.3125 41.75 C151.4690178 41.07809657 151.4690178 41.07809657 149.3125 40.75 C146.88087559 42.09418989 144.74608583 43.45446387 142.5 45.0625 C141.15388181 45.99383076 139.80752073 46.92481051 138.4609375 47.85546875 C137.77354492 48.33677246 137.08615234 48.81807617 136.37792969 49.31396484 C133.7784319 51.12132252 131.14756297 52.87775635 128.50756836 54.62524414 C127.25387162 55.45751928 126.00463933 56.2965594 124.76000977 57.14233398 C121.81126845 59.14059963 118.86756604 61.03016357 115.73828125 62.734375 C109.73571751 65.893776 109.73571751 65.893776 106.5625 71.4921875 C106.47815029 73.52185246 106.45352159 75.55475489 106.484375 77.5859375 C106.10507528 84.56850055 102.16296812 91.46171082 97.0625 96.1875 C95.840281 97.08096595 94.58809005 97.93454263 93.3125 98.75 C92.61769531 99.23339844 91.92289063 99.71679688 91.20703125 100.21484375 C83.67552952 104.76906841 75.79726991 104.80951949 67.3125 103.75 C58.40809294 101.12152093 51.96301129 95.12987782 47.5 87.125 C45.51612813 83.03287557 45.14460808 79.7638941 44.9375 75.25 C44.36278249 70.99411774 43.8422688 69.25518372 40.703125 66.26171875 C37.55370185 64.05463543 34.21540365 62.17303 30.87597656 60.27099609 C25.6278364 57.1570996 20.61998073 53.66139604 15.5625 50.25 C13.48522573 48.86330809 11.40715367 47.4778102 9.328125 46.09375 C6.65625 44.3125 3.984375 42.53125 1.3125 40.75 C0.3225 40.75 -0.6675 40.75 -1.6875 40.75 C-1.80338422 48.89500509 -1.89220902 57.03966544 -1.94656086 65.18529129 C-1.97264817 68.96773661 -2.00802825 72.74961771 -2.06469727 76.53173828 C-2.11905122 80.18222338 -2.14892706 83.83216606 -2.16188622 87.4830246 C-2.17112033 88.87534882 -2.1891532 90.26764355 -2.21615028 91.65973663 C-2.25247353 93.61042797 -2.25454264 95.56166591 -2.25512695 97.51269531 C-2.26623001 98.6230011 -2.27733307 99.73330688 -2.28877258 100.8772583 C-1.49079839 104.68979491 0.15239786 105.62115641 3.3125 107.75 C8.30392393 113.64111269 9.09870366 119.7549792 8.7890625 127.30859375 C7.79464344 134.48960354 5.05355175 139.71587807 -0.625 144.25 C-7.67764064 148.88197549 -14.358451 149.6059497 -22.6875 148.75 C-29.38577839 146.95925891 -33.82038719 142.32559916 -37.6875 136.75 C-41.38979108 130.33006973 -42.00168343 122.68256847 -40.1015625 115.55078125 C-38.25212434 111.23259766 -35.86997594 109.09501727 -32.09545898 106.37207031 C-28.14803076 102.90731728 -27.00974216 100.62918633 -26.57055664 95.39746094 C-26.53168489 92.92672154 -26.54342353 90.45482495 -26.59765625 87.984375 C-26.59541298 86.01794037 -26.59541298 86.01794037 -26.59312439 84.01177979 C-26.59339215 81.25059967 -26.62437722 78.49207383 -26.67895508 75.73144531 C-26.74729968 72.19754912 -26.74859294 68.66749054 -26.72840214 65.13311386 C-26.71596287 61.74976361 -26.75188293 58.36759286 -26.78515625 54.984375 C-26.78242203 53.71768982 -26.77968781 52.45100464 -26.77687073 51.14593506 C-26.85590978 47.89791565 -26.9735551 44.91959747 -27.6875 41.75 C-30.42663486 38.94863333 -30.42663486 38.94863333 -33.6875 37.75 C-35.55078125 35.53125 -35.55078125 35.53125 -37 33.25 C-37.49113281 32.4971875 -37.98226563 31.744375 -38.48828125 30.96875 C-41.68156247 25.06065966 -41.66732962 17.70052323 -40.07421875 11.27734375 C-37.47206699 4.59428439 -32.94468333 0.15214562 -26.7421875 -3.34765625 C-17.21842445 -7.49261385 -8.48552022 -5.44727251 0 0 Z " fill="#178C4A" transform="translate(318.6875,327.25)"/>
<path d="M0 0 C7.76188252 3.94902795 11.78321519 8.51012579 14.5625 16.8125 C15.78575923 24.27969982 14.5599772 31.36323679 10.5625 37.8125 C5.45067404 43.60331613 0.65175758 47.28653597 -7.12109375 48.08984375 C-14.5995945 48.4804406 -20.36050677 47.32158572 -26.4375 42.8125 C-28.80269639 40.33444155 -30.70200832 37.76166322 -32.4375 34.8125 C-32.81003906 34.21953125 -33.18257813 33.6265625 -33.56640625 33.015625 C-35.86861429 27.19300018 -35.44131219 18.9101007 -33.52734375 13.00390625 C-30.98976404 8.16537002 -27.90364876 4.91146036 -23.4375 1.8125 C-22.591875 1.214375 -21.74625 0.61625 -20.875 0 C-14.29611279 -2.27270649 -6.62606799 -2.23422331 0 0 Z " fill="#0A7B43" transform="translate(404.4375,273.1875)"/>
<path d="M0 0 C4.88675421 3.7267671 7.99228877 8.84684648 9.171875 14.8671875 C9.8690394 22.22741489 9.2525785 27.65371214 5.171875 33.8671875 C4.615 34.7540625 4.058125 35.6409375 3.484375 36.5546875 C-2.27730555 42.31636805 -7.71037631 44.38005185 -15.890625 44.4921875 C-22.34510597 44.39618519 -27.10438884 43.42307517 -31.828125 38.8671875 C-32.31539063 38.39796875 -32.80265625 37.92875 -33.3046875 37.4453125 C-39.35879896 30.86013863 -40.41619282 24.6875157 -40.16796875 16.01953125 C-39.35866331 8.51252559 -35.73515445 4.02094472 -29.96875 -0.65625 C-20.10349145 -7.46111812 -9.88542667 -6.1255849 0 0 Z " fill="#2C9E50" transform="translate(409.828125,482.1328125)"/>
<path d="M0 0 C5.24528911 2.91677292 7.98817197 6.32549214 9.75 12.0625 C10.56461962 17.28780781 10.58671035 22.15949679 8.125 26.9375 C4.72853175 31.40653717 1.00415399 34.8716535 -4.25 37.0625 C-10.23175489 37.82255796 -15.11210351 37.40810701 -20.25 34.0625 C-21.11625 33.546875 -21.9825 33.03125 -22.875 32.5 C-26.96819977 28.29908445 -28.95688885 23.3062634 -29.484375 17.46875 C-29.20475477 10.99753898 -26.94779212 6.49476474 -22.25 2.0625 C-15.2053938 -3.17655587 -7.93225898 -3.38945191 0 0 Z " fill="#1D924D" transform="translate(222.25,278.9375)"/>
<path d="M0 0 C5.04226982 2.25932475 8.82129779 5.67728182 11.78125 10.34765625 C13.49238635 15.51255859 13.92773731 21.55993191 11.83984375 26.63671875 C8.46927454 32.27898821 4.2476085 36.54309109 -2.21875 38.34765625 C-9.29611609 38.91841158 -14.00353015 37.5398516 -19.96875 33.47265625 C-24.84989309 28.86268778 -25.91988327 24.5156436 -26.53125 18.03515625 C-26.02465974 12.0573912 -23.78921422 7.41671167 -19.21875 3.47265625 C-13.05014989 -0.89676883 -7.44164826 -2.1879494 0 0 Z " fill="#0C663B" transform="translate(580.21875,377.65234375)"/>
<path d="M0 0 C4.19960819 3.18499697 7.20161015 7.43686169 8.859375 12.41015625 C9.60993778 19.54050262 7.73158168 24.41036349 3.859375 30.41015625 C-0.5195805 34.90139266 -5.34687522 36.45548487 -11.515625 36.84765625 C-16.71584042 36.72488557 -20.19857806 34.68178704 -24.140625 31.41015625 C-29.32969103 25.81142712 -30.56258808 21.61436181 -30.3828125 14.09375 C-29.89555005 8.6945677 -27.6551542 5.69378082 -23.765625 2.16015625 C-16.49541579 -3.62571858 -8.2522471 -4.60475388 0 0 Z " fill="#0E673C" transform="translate(584.140625,279.58984375)"/>
<path d="M0 0 C4.13836287 2.49785647 8.04918784 6.5123272 9.62890625 11.140625 C10.7743553 18.18850564 10.63156155 23.56527114 6.38671875 29.49609375 C2.69603788 33.86424207 -1.34492361 36.71562222 -7.07421875 37.44140625 C-12.82177461 37.73716384 -17.46754241 36.8043145 -22.0390625 33.18359375 C-27.32655459 26.91906508 -29.72715916 21.44075365 -29.0390625 13.18359375 C-26.76366031 6.34438489 -22.94833818 2.34398294 -16.6640625 -1.12890625 C-10.88080372 -2.64356926 -5.49189871 -2.26839294 0 0 Z " fill="#0E683D" transform="translate(494.0390625,226.81640625)"/>
<path d="M0 0 C4.59433484 2.78222668 8.26931297 7.1126264 9.9609375 12.1875 C10.58110565 18.23413949 10.12397758 23.89720409 6.9609375 29.1875 C2.17055985 34.64320788 -2.69683712 36.86405883 -9.9140625 37.5625 C-14.60647963 37.3923551 -18.32661671 36.08091136 -22.0390625 33.1875 C-26.59253386 27.71543246 -29.45560856 22.65500932 -29.30859375 15.37109375 C-28.70577883 10.48741927 -26.69605105 6.72446524 -23.09765625 3.38671875 C-15.87050146 -2.19003605 -8.56418973 -3.52045744 0 0 Z " fill="#0C7E45" transform="translate(312.0390625,226.8125)"/>
<path d="M0 0 C5.70283229 2.59711527 8.96654892 6.17711149 12.05859375 11.625 C13.70088292 18.04485768 13.43497221 22.74650775 10.18359375 28.625 C6.64978931 33.92982532 3.5195791 36.44825013 -2.67578125 37.8671875 C-9.6418742 38.90154676 -14.03079074 37.41127289 -19.94140625 33.5625 C-24.67877449 28.95316874 -26.49605478 25.28539474 -26.69140625 18.75 C-26.45492269 13.34043863 -25.56676743 9.6309478 -21.63671875 5.69140625 C-15.06313518 -0.1909636 -8.82744541 -2.69260033 0 0 Z " fill="#15884B" transform="translate(580.25390625,488.6875)"/>
<path d="M0 0 C5.24828338 3.15764488 8.54962554 7.00598842 10.23828125 12.921875 C11.06168046 19.40614378 9.68894101 24.35834973 6.23828125 29.921875 C2.55548009 34.07889987 -1.88085668 36.51278397 -7.375 37.29296875 C-14.13462216 37.45926915 -18.66789044 36.52313973 -23.76171875 31.921875 C-28.03504418 26.55282511 -29.15274063 22.01913168 -29.03125 15.29296875 C-28.37818733 9.54791016 -25.60233436 5.28468158 -21.38671875 1.421875 C-15.119229 -2.84236102 -6.91110914 -2.69797188 0 0 Z " fill="#0D6B3D" transform="translate(403.76171875,174.078125)"/>
<path d="M0 0 C5.58878855 3.35117208 9.89056663 7.64171306 11.640625 14.05859375 C12.7566666 20.74155717 11.1399367 25.30932719 7.38671875 30.8828125 C3.712701 35.46095095 0.95993694 36.80420014 -4.70703125 37.42578125 C-10.01804859 37.61565989 -14.12565253 37.63291283 -18.984375 35.37109375 C-24.50243099 29.99824976 -27.33715813 25.4197849 -27.734375 17.62109375 C-27.57250087 11.94597723 -25.6018712 8.3163797 -21.640625 4.328125 C-15.49973123 -1.14924 -7.98411957 -3.18571658 0 0 Z " fill="#3AA655" transform="translate(402.359375,588.94140625)"/>
<path d="M0 0 C4.99668884 3.45009467 8.55536741 7.03931435 10.625 12.8125 C11.56325391 19.62056194 10.65428719 25.1793218 6.625 30.8125 C0.64362657 36.49480476 -4.14841486 37.26985499 -12.2421875 37.125 C-17.76570099 36.57402609 -20.58130285 33.81583562 -24.125 29.875 C-27.91360097 24.71829313 -29.31417602 20.24407246 -28.375 13.8125 C-26.43937323 7.63472114 -22.71183314 3.39102617 -17.375 -0.1875 C-11.7337252 -2.06792493 -5.59316369 -1.967965 0 0 Z " fill="#289B4F" transform="translate(493.375,538.1875)"/>
<path d="M0 0 C4.51941436 3.12054801 8.46728042 6.70211152 10.625 11.8125 C11.6214646 18.72699217 10.67288094 25.03766986 6.625 30.8125 C2.01688379 35.62917319 -2.44934902 37.20347297 -9.0625 37.4375 C-15.16383195 37.12497543 -18.5125404 35.8196907 -22.765625 31.3515625 C-27.13119842 26.40893053 -28.8655194 22.70081276 -28.68359375 16.18359375 C-27.80714729 9.44937851 -24.17908317 5.12675061 -19.05859375 0.94140625 C-13.69101704 -2.65773452 -5.83942081 -2.05461102 0 0 Z " fill="#36A753" transform="translate(311.375,538.1875)"/>
<path d="M0 0 C4.1960766 2.76559594 6.35122631 5.22723405 8 10 C8.89390468 17.11853363 8.32102417 23.13194248 4 29 C-0.35353847 33.79378393 -5.05921089 35.73265554 -11.4375 36.3125 C-17.95631496 35.74067413 -22.23049318 33.21545068 -26.73828125 28.6953125 C-31.05001303 22.90184008 -30.93273922 15.89560779 -30 9 C-27.65801445 3.52388673 -23.5672254 -0.04878203 -18.140625 -2.37890625 C-11.5360893 -4.29518577 -6.02491358 -3.24418423 0 0 Z " fill="#36A454" transform="translate(224,384)"/>
<path d="M0 0 C5.00330085 2.84163131 8.92457418 6.96122253 10.75 12.4375 C11.48979936 19.2654843 10.85473465 24.80600429 6.75 30.4375 C1.42330797 35.90007703 -2.82895807 36.91616181 -10.35644531 37.03125 C-15.1013581 36.8948366 -17.88659084 35.98948691 -21.5 32.9375 C-26.5197015 27.53895311 -28.57195645 22.81508782 -28.3125 15.4375 C-27.41908686 9.1932146 -24.34742049 5.11185818 -19.6484375 1.0546875 C-13.70865122 -2.97085486 -6.44158723 -2.845137 0 0 Z " fill="#38A654" transform="translate(221.25,489.5625)"/>
<path d="M0 0 C0.33 0 0.66 0 1 0 C1 15.18 1 30.36 1 46 C1.66 46 2.32 46 3 46 C4.12122873 49.36368618 3.76972616 51.57899483 3 55 C3 56.32 3 57.64 3 59 C0.6875 61.5 0.6875 61.5 -2 64 C-3.58198755 65.97748444 -4.86986804 67.73973609 -6 70 C-7.485 70.495 -7.485 70.495 -9 71 C-9.144375 72.134375 -9.28875 73.26875 -9.4375 74.4375 C-10 78 -10 78 -11 79 C-11.04092937 81.33297433 -11.04241723 83.66705225 -11 86 C-9.68 86.33 -8.36 86.66 -7 87 C-8.485 87.495 -8.485 87.495 -10 88 C-9.34 89.65 -8.68 91.3 -8 93 C-7.01 93 -6.02 93 -5 93 C-4.67 93.66 -4.34 94.32 -4 95 C-1.47266765 95.65555119 -1.47266765 95.65555119 1 96 C1 96.66 1 97.32 1 98 C-0.32 98 -1.64 98 -3 98 C-1.33045181 101.22404978 -1.33045181 101.22404978 1.625 101.6875 C2.40875 101.790625 3.1925 101.89375 4 102 C4 102.66 4 103.32 4 104 C10.15200655 104.12062758 15.43545847 103.78227076 21 101 C21.474375 100.319375 21.94875 99.63875 22.4375 98.9375 C24 97 24 97 27.1875 96.25 C28.115625 96.1675 29.04375 96.085 30 96 C28.614012 99.35066172 27.2243823 100.83371851 24.125 102.6875 C23.44695312 103.10386719 22.76890625 103.52023437 22.0703125 103.94921875 C16.02111538 107.01947163 8.16126484 107.10171767 1.68359375 105.38671875 C-4.94209708 102.44340795 -10.03650229 96.78930319 -12.9375 90.1875 C-14.91104672 83.9091545 -15.18075683 76.92576938 -12.5625 70.8125 C-10.66323403 67.51423067 -8.47004962 65.8287441 -5.40844727 63.6171875 C-1.46974894 60.16130248 -0.32527763 57.89573577 0.11352539 52.67578125 C0.15372863 50.22167775 0.14593502 47.76645792 0.09765625 45.3125 C0.10711777 44.01425293 0.11657928 42.71600586 0.12632751 41.37841797 C0.15080285 37.95153986 0.12200135 34.52716938 0.08154297 31.1005249 C0.04975598 27.59427713 0.06911579 24.08833665 0.08398438 20.58203125 C0.1056356 13.7208076 0.0709247 6.86087504 0 0 Z " fill="#48A261" transform="translate(292,370)"/>
<path d="M0 0 C3.69230769 0.69230769 3.69230769 0.69230769 5 2 C5.09391296 3.90243762 5.11743658 5.80838459 5.11352539 7.71313477 C5.11344986 8.9343251 5.11337433 10.15551544 5.11329651 11.41371155 C5.10818911 12.75627686 5.10297311 14.09884175 5.09765625 15.44140625 C5.09579199 16.80761158 5.09436813 18.17381757 5.09336853 19.5400238 C5.08954394 23.14201695 5.07971417 26.74397 5.06866455 30.34594727 C5.05844916 34.01903745 5.05387064 37.69213409 5.04882812 41.36523438 C5.03809184 48.57684123 5.02101614 55.788415 5 63 C4.01 63.495 4.01 63.495 3 64 C1.94053436 60.82160309 1.87935704 58.58154652 1.88647461 55.2434082 C1.88655014 54.06241043 1.88662567 52.88141266 1.88670349 51.66462708 C1.89186478 50.38955795 1.89702606 49.11448883 1.90234375 47.80078125 C1.9037587 46.49545944 1.90517365 45.19013763 1.90663147 43.84526062 C1.9104462 40.37810344 1.92026756 36.91098826 1.93133545 33.44384766 C1.94157202 29.90462818 1.9461339 26.3654019 1.95117188 22.82617188 C1.96189077 15.88409735 1.97895466 8.94205069 2 2 C1.34 2 0.68 2 0 2 C0 2.66 0 3.32 0 4 C-1.98 4.33 -3.96 4.66 -6 5 C-5.195625 4.360625 -4.39125 3.72125 -3.5625 3.0625 C-1.7249496 1.59396498 -1.7249496 1.59396498 0 0 Z " fill="#E7F9ED" transform="translate(468,367)"/>
<path d="M0 0 C0.99 0 1.98 0 3 0 C3 20.13 3 40.26 3 61 C1.515 61.495 1.515 61.495 0 62 C0 41.54 0 21.08 0 0 Z " fill="#237F51" transform="translate(473,368)"/>
<path d="M0 0 C0.33 0 0.66 0 1 0 C1 15.18 1 30.36 1 46 C1.66 46 2.32 46 3 46 C4.12122873 49.36368618 3.76972616 51.57899483 3 55 C3 56.32 3 57.64 3 59 C0.6875 61.5 0.6875 61.5 -2 64 C-3.58198755 65.97748444 -4.86986804 67.73973609 -6 70 C-7.485 70.495 -7.485 70.495 -9 71 C-7.14317911 66.00086685 -5.52148281 62.01432188 -1 59 C-0.5220608 56.41783979 -0.5220608 56.41783979 -0.56762695 53.35693359 C-0.54783279 52.17586029 -0.52803864 50.99478699 -0.50764465 49.77792358 C-0.49805977 47.85757797 -0.49805977 47.85757797 -0.48828125 45.8984375 C-0.47033005 44.59170074 -0.45237885 43.28496399 -0.43388367 41.93862915 C-0.38630897 38.46330801 -0.3565485 34.98805211 -0.33044434 31.51251221 C-0.30067606 27.96654367 -0.25413309 24.42080016 -0.20898438 20.875 C-0.12286678 13.91679468 -0.05555938 6.95851452 0 0 Z " fill="#6EB587" transform="translate(292,370)"/>
<path d="M0 0 C0.86625 0.12375 1.7325 0.2475 2.625 0.375 C4.4375 2.875 4.4375 2.875 5.625 5.375 C2.655 4.88 2.655 4.88 -0.375 4.375 C-0.49088422 12.52000509 -0.57970902 20.66466544 -0.63406086 28.81029129 C-0.66014817 32.59273661 -0.69552825 36.37461771 -0.75219727 40.15673828 C-0.80655122 43.80722338 -0.83642706 47.45716606 -0.84938622 51.1080246 C-0.85862033 52.50034882 -0.8766532 53.89264355 -0.90365028 55.28473663 C-0.93997353 57.23542797 -0.94204264 59.18666591 -0.94262695 61.13769531 C-0.95373001 62.2480011 -0.96483307 63.35830688 -0.97627258 64.5022583 C-0.17723719 68.31986507 1.48001933 69.2136727 4.625 71.375 C6.5 74 6.5 74 7.625 76.375 C7.13 77.365 7.13 77.365 6.625 78.375 C1.825 75.05192308 1.825 75.05192308 0.8125 71.625 C0.750625 70.8825 0.68875 70.14 0.625 69.375 C-0.365 69.045 -1.355 68.715 -2.375 68.375 C-3.15605537 64.23333266 -3.50125461 60.32242473 -3.50439453 56.11010742 C-3.50754669 54.89252243 -3.51069885 53.67493744 -3.51394653 52.42045593 C-3.5119223 51.12026016 -3.50989807 49.82006439 -3.5078125 48.48046875 C-3.50848668 47.12380455 -3.50945765 45.76714047 -3.51071167 44.41047668 C-3.51218077 41.57873373 -3.51005781 38.74702246 -3.50537109 35.9152832 C-3.49964691 32.27899529 -3.50297466 28.64278076 -3.50894356 25.00649548 C-3.51254724 22.21077414 -3.51141195 19.41507038 -3.50881577 16.61934853 C-3.50782198 14.62450233 -3.51086482 12.62965546 -3.51394653 10.6348114 C-3.51079437 9.43298721 -3.50764221 8.23116302 -3.50439453 6.99291992 C-3.50359894 5.92957932 -3.50280334 4.86623871 -3.50198364 3.77067566 C-3.33109523 0.54669179 -3.17400114 0.50115808 0 0 Z " fill="#3C9058" transform="translate(317.375,363.625)"/>
<path d="M0 0 C4.27369057 1.47935443 5.34602562 3.27446113 7.34765625 7.2265625 C9.06682405 12.74873784 8.61573965 18.41133386 8.25 24.125 C7.26 24.455 6.27 24.785 5.25 25.125 C5.26160156 24.42375 5.27320313 23.7225 5.28515625 23 C5.33971184 17.26386898 5.10618377 11.79721747 4.25 6.125 C3.693125 6.33125 3.13625 6.5375 2.5625 6.75 C-0.409538 7.23195211 -2.06979941 6.39065028 -4.75 5.125 C-3.63 0.165 -3.63 0.165 0 0 Z " fill="#23754C" transform="translate(500.75,328.875)"/>
<path d="M0 0 C0.66 0.33 1.32 0.66 2 1 C0.8553125 1.556875 0.8553125 1.556875 -0.3125 2.125 C-3.52043115 4.3630915 -4.4977816 6.44211433 -6 10 C-6.66 10 -7.32 10 -8 10 C-8 10.66 -8 11.32 -8 12 C-8.99 12.495 -8.99 12.495 -10 13 C-11.66213456 17.44207891 -12.22839857 21.75861037 -11.5 26.4375 C-11.335 27.613125 -11.17 28.78875 -11 30 C-11.66 30.66 -12.32 31.32 -13 32 C-15.12115431 24.60182765 -14.87142814 16.99285629 -11.4140625 10.078125 C-8.55135743 5.87105568 -4.56201443 2.28100721 0 0 Z " fill="#348E5C" transform="translate(292,324)"/>
<path d="M0 0 C0.33 0 0.66 0 1 0 C1 20.13 1 40.26 1 61 C0.01 61.495 0.01 61.495 -1 62 C-1.495 60.515 -1.495 60.515 -2 59 C-1.505 58.505 -1.505 58.505 -1 58 C-0.87669912 56.1903226 -0.82209817 54.37592163 -0.79467773 52.56225586 C-0.77473251 51.40112778 -0.75478729 50.23999969 -0.73423767 49.04368591 C-0.71752518 47.780168 -0.70081268 46.51665009 -0.68359375 45.21484375 C-0.66281265 43.92888809 -0.64203156 42.64293243 -0.62062073 41.31800842 C-0.56533824 37.89364096 -0.51595639 34.4692125 -0.46777344 31.04473877 C-0.41760335 27.55255686 -0.3618939 24.0604639 -0.30664062 20.56835938 C-0.1989836 13.71231667 -0.09755551 6.85619367 0 0 Z " fill="#CAF6DE" transform="translate(472,369)"/>
<path d="M0 0 C0.33 0 0.66 0 1 0 C1 1.65 1 3.3 1 5 C0.01 5 -0.98 5 -2 5 C-2.144375 6.134375 -2.28875 7.26875 -2.4375 8.4375 C-3 12 -3 12 -4 13 C-4.56166927 19.17836196 -3.35939462 23.28225952 -0.77734375 28.8984375 C-0.52082031 29.59195312 -0.26429688 30.28546875 0 31 C-0.33 31.66 -0.66 32.32 -1 33 C-6.69944465 25.74616136 -6.94463699 18.99257369 -6 10 C-4.62093267 6.25469125 -2.84557891 2.84557891 0 0 Z " fill="#32815B" transform="translate(376,279)"/>
<path d="M0 0 C0.33 0 0.66 0 1 0 C1 18.15 1 36.3 1 55 C-0.32 55.66 -1.64 56.32 -3 57 C-2.67 56.01 -2.34 55.02 -2 54 C-1.34 54 -0.68 54 0 54 C0 36.18 0 18.36 0 0 Z " fill="#E9FDED" transform="translate(291,374)"/>
<path d="M0 0 C0.33 0.99 0.66 1.98 1 3 C-0.21484375 4.7265625 -0.21484375 4.7265625 -1.9375 6.625 C-4.99129945 10.47759421 -5.62266736 12.96112441 -5.27734375 17.8125 C-5.14005859 18.8953125 -5.14005859 18.8953125 -5 20 C-4.91878906 20.70125 -4.83757812 21.4025 -4.75390625 22.125 C-4.54024802 23.75537661 -4.27591529 25.37899769 -4 27 C-7.31024806 22.82620897 -8.35481483 19.59492175 -8.28515625 14.19140625 C-7.53930907 8.45962177 -4.32860172 3.71023004 0 0 Z " fill="#51A06A" transform="translate(473,540)"/>
<path d="M0 0 C2.375 0.3125 2.375 0.3125 5 1 C5.66 1.99 6.32 2.98 7 4 C10.18395613 4.40477677 10.18395613 4.40477677 13.8125 4.25 C15.03582031 4.23453125 16.25914062 4.2190625 17.51953125 4.203125 C20.46356648 4.03130701 23.13731527 3.67613887 26 3 C23.40484724 5.71311425 22.02377111 6.91374304 18.171875 7.23828125 C6.74253101 7.48617798 6.74253101 7.48617798 2 3 C1.34 2.01 0.68 1.02 0 0 Z " fill="#50A266" transform="translate(288,568)"/>
<path d="M0 0 C2.31 0.33 4.62 0.66 7 1 C7.33 1.99 7.66 2.98 8 4 C15.92 3.505 15.92 3.505 24 3 C18.44968161 7.1627388 13.75053441 6.77890782 7 6 C3.7576247 4.74431648 1.5925432 3.18508639 0 0 Z " fill="#479C62" transform="translate(471,569)"/>
<path d="M0 0 C0.33 0 0.66 0 1 0 C2.70712109 10.44555278 2.70712109 10.44555278 1.09375 13.9921875 C-0.1875 15.5 -0.1875 15.5 -3 18 C-3.66 18.78375 -4.32 19.5675 -5 20.375 C-7 22 -7 22 -9.75 22.25 C-10.4925 22.1675 -11.235 22.085 -12 22 C-11.2575 21.443125 -10.515 20.88625 -9.75 20.3125 C-2.73837683 14.41636234 -0.89470156 8.79789865 0 0 Z " fill="#DBF3DF" transform="translate(232,504)"/>
<path d="M0 0 C0.99 0 1.98 0 3 0 C1.97066312 3.00223256 1.14483477 4.85516523 -1.125 7.125 C-3.99172949 11.52065188 -3.32196741 15.89323906 -3 21 C-2.34 21 -1.68 21 -1 21 C-1.33 22.32 -1.66 23.64 -2 25 C-4.75429289 19.60617642 -5.9744738 15.06454437 -5 9 C-3.80644583 5.81181251 -2.44110583 2.44110583 0 0 Z " fill="#2E6E4E" transform="translate(380,178)"/>
<path d="M0 0 C-1.05058594 0.03738281 -2.10117187 0.07476562 -3.18359375 0.11328125 C-11.02291052 0.45866672 -17.5994435 1.19289236 -25 4 C-25.66 3.67 -26.32 3.34 -27 3 C-19.45213151 -2.03191233 -8.28726495 -4.89084489 0 0 Z " fill="#408F62" transform="translate(404,371)"/>
<path d="M0 0 C0.86625 0.12375 1.7325 0.2475 2.625 0.375 C4.4375 2.875 4.4375 2.875 5.625 5.375 C2.655 4.88 2.655 4.88 -0.375 4.375 C-0.705 12.625 -1.035 20.875 -1.375 29.375 C-1.705 29.375 -2.035 29.375 -2.375 29.375 C-2.54229064 25.40592526 -2.70288226 21.43664279 -2.85717773 17.46704102 C-2.91065802 16.11572921 -2.96599194 14.76448948 -3.02319336 13.41333008 C-3.10493571 11.47497011 -3.17953323 9.53631296 -3.25390625 7.59765625 C-3.3010376 6.42984619 -3.34816895 5.26203613 -3.39672852 4.05883789 C-3.36882152 0.61185335 -3.35192472 0.52925127 0 0 Z " fill="#338E58" transform="translate(317.375,363.625)"/>
<path d="M0 0 C4.97703872 0.48556475 9.03958915 1.94099017 13 5 C17 10.12820513 17 10.12820513 17 13 C16.34 13 15.68 13 15 13 C15 12.34 15 11.68 15 11 C14.01 11.33 13.02 11.66 12 12 C11.9175 11.21625 11.835 10.4325 11.75 9.625 C11.27193661 6.85250896 11.27193661 6.85250896 8.9375 5.6875 C8.298125 5.460625 7.65875 5.23375 7 5 C7 4.34 7 3.68 7 3 C4.69 2.67 2.38 2.34 0 2 C0 1.34 0 0.68 0 0 Z " fill="#55A467" transform="translate(304,537)"/>
<path d="M0 0 C2.72333957 4.08500936 2.87781018 7.20130437 2 12 C0.30141119 15.55518589 -1.73952491 18.77747748 -4 22 C-4.99 21.67 -5.98 21.34 -7 21 C-6.505 19.515 -6.505 19.515 -6 18 C-5.01 17.67 -4.02 17.34 -3 17 C-2.67 15.35 -2.34 13.7 -2 12 C-1.34 12 -0.68 12 0 12 C0 8.04 0 4.08 0 0 Z " fill="#59A96E" transform="translate(412,600)"/>
<path d="M0 0 C4.53778675 3.06607213 6.37172175 5.77236982 8 11 C8.31826158 14.0334307 8.47364042 16.97977345 8 20 C7.34 20.66 6.68 21.32 6 22 C5.98582031 21.2265625 5.97164062 20.453125 5.95703125 19.65625 C5.66050424 13.18074124 4.9660021 8.77021245 1.05859375 3.5234375 C0 2 0 2 0 0 Z " fill="#428D66" transform="translate(585,492)"/>
<path d="M0 0 C2 2 2 2 2.6796875 5.31640625 C4.42189685 10.17706726 6.78250336 11.46528656 11.125 13.9375 C11.78371094 14.33517578 12.44242187 14.73285156 13.12109375 15.14257812 C14.7361705 16.11396487 16.36665538 17.05965408 18 18 C13.82412255 19.39195915 11.86525224 17.82323219 8 16 C8 15.01 8 14.02 8 13 C7.236875 12.79375 6.47375 12.5875 5.6875 12.375 C2.09509301 10.53702433 1.39032415 8.73192273 0 5 C-0.1875 2.125 -0.1875 2.125 0 0 Z " fill="#318857" transform="translate(324,335)"/>
<path d="M0 0 C0.33 0.99 0.66 1.98 1 3 C-2.81198976 7.31942996 -8.50599566 9.47079861 -14.140625 10.32421875 C-16 10.375 -16 10.375 -19 10 C-19.66 9.34 -20.32 8.68 -21 8 C-20.154375 7.92523438 -19.30875 7.85046875 -18.4375 7.7734375 C-10.70318428 6.87696 -5.66238963 5.4399997 0 0 Z " fill="#DAF1E3" transform="translate(412,313)"/>
<path d="M0 0 C0.33 0.99 0.66 1.98 1 3 C-0.155 2.67 -1.31 2.34 -2.5 2 C-10.79939262 -0.02388697 -17.06355419 1.26778095 -25 4 C-25 3.34 -25 2.68 -25 2 C-16.32429682 -2.94004746 -9.35234554 -1.84552952 0 0 Z " fill="#DAF5E0" transform="translate(405,477)"/>
<path d="M0 0 C0.99 0.66 1.98 1.32 3 2 C1.88121617 3.17262904 0.75476949 4.33795138 -0.375 5.5 C-1.00148438 6.1496875 -1.62796875 6.799375 -2.2734375 7.46875 C-4 9 -4 9 -6 9 C-6 10.32 -6 11.64 -6 13 C-6.66 13 -7.32 13 -8 13 C-8.33 13.66 -8.66 14.32 -9 15 C-9 8.25257773 -4.42228951 4.53309859 0 0 Z " fill="#2B8654" transform="translate(470,431)"/>
<path d="M0 0 C0.33 0 0.66 0 1 0 C1.10826289 2.4178712 1.18739789 4.83087556 1.25 7.25 C1.28351563 7.93191406 1.31703125 8.61382812 1.3515625 9.31640625 C1.4215705 12.92181813 1.29151719 14.64068812 -1.015625 17.484375 C-1.99789063 18.23460937 -1.99789063 18.23460937 -3 19 C-3.99 18.67 -4.98 18.34 -6 18 C-5.38125 17.071875 -4.7625 16.14375 -4.125 15.1875 C-1.37123994 10.44165819 -0.7380255 5.37010661 0 0 Z " fill="#D8F0E2" transform="translate(419,294)"/>
<path d="M0 0 C1.65 0 3.3 0 5 0 C2.34452145 3.28029703 -0.96664032 5.00191439 -5 6 C-16.6146394 6.92357374 -16.6146394 6.92357374 -21 4 C-16.05 4.33 -11.1 4.66 -6 5 C-6 4.34 -6 3.68 -6 3 C-4.35 3 -2.7 3 -1 3 C-0.67 2.01 -0.34 1.02 0 0 Z " fill="#388D5E" transform="translate(496,470)"/>
<path d="M0 0 C0.33 0.66 0.66 1.32 1 2 C-0.06927734 2.03867187 -0.06927734 2.03867187 -1.16015625 2.078125 C-7.60038186 2.45951117 -11.66475096 3.36749002 -17 7 C-17.99 7.495 -17.99 7.495 -19 8 C-18.75 6.140625 -18.75 6.140625 -18 4 C-12.44429983 -0.01796173 -6.62599769 -0.42069827 0 0 Z " fill="#DDF7DF" transform="translate(307,535)"/>
<path d="M0 0 C2.81093662 2.81093662 2.33299068 4.7013292 2.375 8.625 C2.31029007 14.91480521 1.36893862 18.73603341 -2 24 C-3.60920937 20.78158126 -2.0749168 18.28446801 -1 15 C-0.67 14.67 -0.34 14.34 0 14 C0.07271741 11.64686445 0.08370868 9.29166332 0.0625 6.9375 C0.04896484 5.00197266 0.04896484 5.00197266 0.03515625 3.02734375 C0.02355469 2.02832031 0.01195312 1.02929688 0 0 Z " fill="#4A9B60" transform="translate(325,442)"/>
<path d="M0 0 C0.99 0.33 1.98 0.66 3 1 C5.73865287 1.07051114 8.45027588 1.09357765 11.1875 1.0625 C12.31188477 1.05573242 12.31188477 1.05573242 13.45898438 1.04882812 C15.30602383 1.03706354 17.15302213 1.01912865 19 1 C17 4 17 4 15.1171875 4.6171875 C9.19213455 5.29846537 5.43075936 4.46852698 0 2 C0 1.34 0 0.68 0 0 Z " fill="#D7F1DD" transform="translate(384,624)"/>
<path d="M0 0 C2.4375 0.6875 2.4375 0.6875 5 2 C6.27435542 5.99684201 5.93846665 9.67686686 5.5625 13.8125 C5.46066406 14.97394531 5.35882813 16.13539063 5.25390625 17.33203125 C5.17011719 18.21246094 5.08632813 19.09289062 5 20 C4.67 20 4.34 20 4 20 C3.96261719 19.20335937 3.92523438 18.40671875 3.88671875 17.5859375 C3.52066068 11.68594268 3.12544351 7.16377623 0 2 C0 1.34 0 0.68 0 0 Z " fill="#CEEAD9" transform="translate(505,436)"/>
<path d="M0 0 C-4.62 0 -9.24 0 -14 0 C-14.66 1.32 -15.32 2.64 -16 4 C-17.98 4 -19.96 4 -22 4 C-15.91111469 -2.76542812 -8.08745506 -4.04372753 0 0 Z " fill="#4D9F62" transform="translate(221,383)"/>
<path d="M0 0 C1.65 0 3.3 0 5 0 C5.103125 0.5775 5.20625 1.155 5.3125 1.75 C5.88521263 4.11051916 5.88521263 4.11051916 7.625 6.0625 C8.07875 6.701875 8.5325 7.34125 9 8 C8.67 8.99 8.34 9.98 8 11 C2.19794344 5.35475578 2.19794344 5.35475578 0 2 C0 1.34 0 0.68 0 0 Z " fill="#31945C" transform="translate(280,356)"/>
<path d="M0 0 C4.80517404 -0.0942191 9.29869807 -0.13970956 14 1 C14.66 1 15.32 1 16 1 C16.33 3.31 16.66 5.62 17 8 C16.52691406 7.66226563 16.05382812 7.32453125 15.56640625 6.9765625 C10.51220552 3.56768638 6.01129318 1.93230704 0 1 C0 0.67 0 0.34 0 0 Z " fill="#DAEEE2" transform="translate(483,224)"/>
<path d="M0 0 C0.33 0.99 0.66 1.98 1 3 C1.969375 3.12375 2.93875 3.2475 3.9375 3.375 C5.4534375 3.684375 5.4534375 3.684375 7 4 C7.33 4.66 7.66 5.32 8 6 C9.89533342 6.46523063 9.89533342 6.46523063 12.0625 6.625 C13.361875 6.74875 14.66125 6.8725 16 7 C16 7.33 16 7.66 16 8 C9.4842033 8.54298306 4.41649552 7.88377017 -1 4 C-1.66 3.01 -2.32 2.02 -3 1 C-2.01 0.67 -1.02 0.34 0 0 Z " fill="#3D7D5E" transform="translate(473,256)"/>
<path d="M0 0 C0.33 0 0.66 0 1 0 C1.37325636 3.26599313 1.09290174 4.82968014 -0.5 7.75 C-3.98648907 10.88784017 -6.37488288 10.76874414 -11 11 C-10.443125 10.608125 -9.88625 10.21625 -9.3125 9.8125 C-5.63239982 6.92809715 -2.59511485 3.89267228 0 0 Z " fill="#E2F6E6" transform="translate(502,564)"/>
<path d="M0 0 C0.33 0.99 0.66 1.98 1 3 C0.01 4.485 0.01 4.485 -1 6 C-1.66 6 -2.32 6 -3 6 C-3 6.99 -3 7.98 -3 9 C-4.98 9.66 -6.96 10.32 -9 11 C-9.66 10.34 -10.32 9.68 -11 9 C-9.9275 8.443125 -8.855 7.88625 -7.75 7.3125 C-4.35083445 5.3888343 -2.24604279 3.23430162 0 0 Z " fill="#DBF0DE" transform="translate(415,515)"/>
<path d="M0 0 C-7.85879847 6.11239881 -15.55227281 5.52165365 -25 5 C-25 4.67 -25 4.34 -25 4 C-24.10796875 3.93941406 -23.2159375 3.87882813 -22.296875 3.81640625 C-20.54117187 3.69072266 -20.54117187 3.69072266 -18.75 3.5625 C-17.58984375 3.48128906 -16.4296875 3.40007813 -15.234375 3.31640625 C-12.68111628 3.06663094 -10.45751175 2.67074289 -8 2 C-7.34 2 -6.68 2 -6 2 C-6 1.34 -6 0.68 -6 0 C-3 -1 -3 -1 0 0 Z " fill="#4B9F61" transform="translate(411,521)"/>
<path d="M0 0 C2.3125 0.125 2.3125 0.125 5 1 C6.03432904 2.98246398 7.03238392 4.98413316 8 7 C10.58443323 8.73490246 10.58443323 8.73490246 13 10 C13 10.66 13 11.32 13 12 C7.78220912 10.57696612 4.37194736 7.0699042 1 3 C0.67 2.01 0.34 1.02 0 0 Z " fill="#35915E" transform="translate(368,416)"/>
<path d="M0 0 C1.64767247 0.28109113 3.29313145 0.57518526 4.9375 0.875 C5.85402344 1.03742188 6.77054687 1.19984375 7.71484375 1.3671875 C8.46894531 1.57601563 9.22304688 1.78484375 10 2 C10.33 2.66 10.66 3.32 11 4 C13.58605332 4.4683265 13.58605332 4.4683265 16.5625 4.625 C17.57441406 4.69976562 18.58632813 4.77453125 19.62890625 4.8515625 C20.80259766 4.92503906 20.80259766 4.92503906 22 5 C22 5.33 22 5.66 22 6 C13.29942593 6.6727248 7.44638025 5.61280192 0 1 C0 0.67 0 0.34 0 0 Z " fill="#39865F" transform="translate(378,315)"/>
<path d="M0 0 C0 0.66 0 1.32 0 2 C-0.66 2 -1.32 2 -2 2 C-1.67 3.32 -1.34 4.64 -1 6 C-1.99 6.66 -2.98 7.32 -4 8 C-4.66 7.34 -5.32 6.68 -6 6 C-7.65 6.66 -9.3 7.32 -11 8 C-4.73913043 0 -4.73913043 0 0 0 Z " fill="#1C6341" transform="translate(568,278)"/>
<path d="M0 0 C2.89091377 1.0972115 5.3117342 2.43591808 8 4 C7.01 4.495 7.01 4.495 6 5 C5.27425781 4.70351563 4.54851562 4.40703125 3.80078125 4.1015625 C0.51937954 2.81096936 -2.30000217 2.58787866 -5.8125 2.375 C-6.97394531 2.30023438 -8.13539063 2.22546875 -9.33203125 2.1484375 C-10.21246094 2.09945313 -11.09289062 2.05046875 -12 2 C-7.94114828 -0.70590114 -4.76904651 -0.65938585 0 0 Z " fill="#3A8E5E" transform="translate(217,277)"/>
<path d="M0 0 C0.33 0 0.66 0 1 0 C1.40178463 6.42855414 0.77298748 11.14591532 -2 17 C-2.99 17.66 -3.98 18.32 -5 19 C-4.67 17.35 -4.34 15.7 -4 14 C-3.34 14 -2.68 14 -2 14 C-1.93941406 13.24074219 -1.87882812 12.48148438 -1.81640625 11.69921875 C-1.69072266 10.20841797 -1.69072266 10.20841797 -1.5625 8.6875 C-1.48128906 7.70136719 -1.40007812 6.71523437 -1.31640625 5.69921875 C-1 3 -1 3 0 0 Z " fill="#2D7D54" transform="translate(321,239)"/>
<path d="M0 0 C2 2 2 2 3 5 C4.175625 5.928125 4.175625 5.928125 5.375 6.875 C8.08496666 9.06878254 9.51445728 10.86385426 11 14 C10.67 14.66 10.34 15.32 10 16 C5.2 12.67692308 5.2 12.67692308 4.1875 9.25 C4.125625 8.5075 4.06375 7.765 4 7 C3.01 6.67 2.02 6.34 1 6 C0.67 4.02 0.34 2.04 0 0 Z " fill="#449A60" transform="translate(314,426)"/>
<path d="M0 0 C3.75492603 2.66797376 5.91585412 4.46629906 7 9 C7.67674586 17.98488121 7.67674586 17.98488121 5 22 C5 17.38 5 12.76 5 8 C4.34 8 3.68 8 3 8 C1.92474806 5.34771188 0.90543849 2.71631546 0 0 Z " fill="#53A265" transform="translate(225,493)"/>
<path d="M0 0 C0.33 0.66 0.66 1.32 1 2 C0.34 2.66 -0.32 3.32 -1 4 C-1 4.33 -1 4.66 -1 5 C-5.15626368 6.00926479 -9.04365094 6.10239579 -13.3125 6.0625 C-14.56675781 6.05347656 -15.82101562 6.04445313 -17.11328125 6.03515625 C-18.06589844 6.02355469 -19.01851563 6.01195312 -20 6 C-20 5.67 -20 5.34 -20 5 C-19.31035156 4.97421875 -18.62070312 4.9484375 -17.91015625 4.921875 C-11.16219932 4.51459091 -5.96924004 3.16885582 0 0 Z " fill="#D6F0DF" transform="translate(500,471)"/>
<path d="M0 0 C2.97 0.495 2.97 0.495 6 1 C4.61272456 3.77455088 2.61803598 4.08670608 -0.14453125 5.203125 C-2.57417578 6.24659339 -4.77233158 7.58239282 -7 9 C-6.75 7.125 -6.75 7.125 -6 5 C-4.0625 3.9375 -4.0625 3.9375 -2 3 C-1.34 2.01 -0.68 1.02 0 0 Z " fill="#237C4C" transform="translate(467,364)"/>
<path d="M0 0 C0 0.66 0 1.32 0 2 C-4.38461538 5 -4.38461538 5 -7 5 C-7.20625 5.639375 -7.4125 6.27875 -7.625 6.9375 C-9 9 -9 9 -12.125 9.75 C-13.548125 9.87375 -13.548125 9.87375 -15 10 C-11.63672231 6.19803392 -5.34781299 0 0 0 Z " fill="#32855A" transform="translate(431,364)"/>
<path d="M0 0 C1.67542976 0.28604898 3.34385343 0.61781233 5 1 C4.67 2.98 4.34 4.96 4 7 C2.02 6.34 0.04 5.68 -2 5 C-1.125 1.125 -1.125 1.125 0 0 Z " fill="#09743F" transform="translate(498,329)"/>
<path d="M0 0 C0.99 0.33 1.98 0.66 3 1 C2.52949219 1.35191406 2.05898438 1.70382812 1.57421875 2.06640625 C-2.9710474 5.67062351 -5.1318087 8.5053197 -7 14 C-7.33 14 -7.66 14 -8 14 C-7.63074596 7.84576594 -6.17122773 5.27296499 -2 1 C-1.34 0.67 -0.68 0.34 0 0 Z " fill="#E1F8E5" transform="translate(473,538)"/>
<path d="M0 0 C6.0546875 -0.1953125 6.0546875 -0.1953125 8 0 C8.66 0.66 9.32 1.32 10 2 C9.67 2.66 9.34 3.32 9 4 C11.31 4 13.62 4 16 4 C16 4.33 16 4.66 16 5 C9.49686791 5.46450943 5.5825192 4.32575612 0 1 C0 0.67 0 0.34 0 0 Z " fill="#3E9168" transform="translate(290,259)"/>
<path d="M0 0 C0.33 0 0.66 0 1 0 C2.28571429 8.57142857 2.28571429 8.57142857 1 12 C1.66 12.33 2.32 12.66 3 13 C3 13.99 3 14.98 3 16 C2.34 16 1.68 16 1 16 C-1.25929298 11.48141403 -1.23967948 7.95337583 -1 3 C-0.67 2.01 -0.34 1.02 0 0 Z " fill="#378961" transform="translate(284,237)"/>
<path d="M0 0 C-1.90059585 3.8011917 -7.5790089 4.85456671 -11.4375 6.1875 C-12.283125 6.455625 -13.12875 6.72375 -14 7 C-9.43166501 2.17786862 -6.76869549 -0.37603864 0 0 Z " fill="#51A264" transform="translate(302,537)"/>
<path d="M0 0 C0.89203125 0.01804687 1.7840625 0.03609375 2.703125 0.0546875 C3.71632812 0.08949219 3.71632812 0.08949219 4.75 0.125 C4.75 0.455 4.75 0.785 4.75 1.125 C2.89375 1.2796875 2.89375 1.2796875 1 1.4375 C-2.65014297 1.87935941 -4.37009736 2.82107789 -7.25 5.125 C-10.5 5.8125 -10.5 5.8125 -13.25 6.125 C-9.05465113 1.62998336 -6.21371741 -0.16351888 0 0 Z " fill="#5CA96D" transform="translate(212.25,487.875)"/>
<path d="M0 0 C0.33 0 0.66 0 1 0 C1.61336495 6.65160208 1.1112538 10.94943526 -2.7109375 16.50390625 C-4 18 -4 18 -6 19 C-5.55269462 16.09251502 -4.79612845 14.72604761 -3 12.3125 C-0.50471763 8.17968858 -0.21081716 4.74338599 0 0 Z " fill="#376C52" transform="translate(592,392)"/>
<path d="M0 0 C10.55808656 -0.3690205 10.55808656 -0.3690205 15 2 C15 2.33 15 2.66 15 3 C10.05 2.67 5.1 2.34 0 2 C0 1.34 0 0.68 0 0 Z " fill="#296646" transform="translate(568,377)"/>
<path d="M0 0 C0.33 0 0.66 0 1 0 C1 1.65 1 3.3 1 5 C1.99 5 2.98 5 4 5 C3.67 5.99 3.34 6.98 3 8 C2.443125 7.79375 1.88625 7.5875 1.3125 7.375 C-1.65839298 6.89323357 -3.28292004 7.81944453 -6 9 C-5.02501855 7.4972763 -4.04490611 5.99788037 -3.0625 4.5 C-2.51722656 3.6646875 -1.97195313 2.829375 -1.41015625 1.96875 C-0.94480469 1.3190625 -0.47945313 0.669375 0 0 Z " fill="#E0F1E8" transform="translate(506,358)"/>
<path d="M0 0 C0.99 0.33 1.98 0.66 3 1 C3.6875 3.0625 3.6875 3.0625 4 5 C4.61875 5.0825 5.2375 5.165 5.875 5.25 C8 6 8 6 9.25 8.0625 C9.4975 8.701875 9.745 9.34125 10 10 C4.98343041 8.5666944 2.98547118 6.09436048 0 2 C0 1.34 0 0.68 0 0 Z " fill="#2E8858" transform="translate(556,515)"/>
<path d="M0 0 C1.32 0 2.64 0 4 0 C4.28875 0.639375 4.5775 1.27875 4.875 1.9375 C5.82823451 4.15206079 5.82823451 4.15206079 8 5 C8 5.66 8 6.32 8 7 C8.99 7.33 9.98 7.66 11 8 C5.95575532 7.55491959 3.55556591 5.39019075 0 2 C0 1.34 0 0.68 0 0 Z " fill="#49A564" transform="translate(198,518)"/>
<path d="M0 0 C0.99 0 1.98 0 3 0 C3.66 0.66 4.32 1.32 5 2 C7.57061311 2.64767793 7.57061311 2.64767793 10 3 C10 3.66 10 4.32 10 5 C8.68 5 7.36 5 6 5 C5.67 5.66 5.34 6.32 5 7 C3.29115995 5.37660195 1.62553283 3.70680947 0 2 C0 1.34 0 0.68 0 0 Z " fill="#34A54E" transform="translate(283,463)"/>
<path d="M0 0 C0.99 0.33 1.98 0.66 3 1 C4.32206335 4.19924723 3.99400235 7.23060085 3.6875 10.625 C3.60886719 11.58664063 3.53023438 12.54828125 3.44921875 13.5390625 C3 16 3 16 1 18 C1.01740234 16.67935547 1.01740234 16.67935547 1.03515625 15.33203125 C1.04417969 14.17058594 1.05320312 13.00914062 1.0625 11.8125 C1.07410156 10.66394531 1.08570313 9.51539063 1.09765625 8.33203125 C1.01192832 5.40699414 0.67849023 2.83683709 0 0 Z " fill="#D7F2E3" transform="translate(320,234)"/>
<path d="M0 0 C1 3 1 3 0.22265625 4.82421875 C-0.8515625 6.54947917 -1.92578125 8.27473958 -3 10 C-4.32 10 -5.64 10 -7 10 C-6.01 9.67 -5.02 9.34 -4 9 C-4 7.02 -4 5.04 -4 3 C-3.01 3.33 -2.02 3.66 -1 4 C-0.67 2.68 -0.34 1.36 0 0 Z " fill="#4FA462" transform="translate(320,560)"/>
<path d="M0 0 C0.33 0 0.66 0 1 0 C0.93976506 2.08412907 0.85091679 4.16744435 0.75 6.25 C0.70359375 7.41015625 0.6571875 8.5703125 0.609375 9.765625 C-0.08791275 13.46661382 -1.11785184 14.67122429 -4 17 C-3.125 12.125 -3.125 12.125 -2 11 C-2.020625 10.0925 -2.04125 9.185 -2.0625 8.25 C-1.99935154 4.96628031 -1.38420337 2.94143216 0 0 Z " fill="#399759" transform="translate(502,553)"/>
<path d="M0 0 C0.9075 0.309375 1.815 0.61875 2.75 0.9375 C5.16563338 1.7272263 7.52780285 2.42949297 10 3 C10 3.66 10 4.32 10 5 C11.32 5.66 12.64 6.32 14 7 C8.57107935 6.56568635 5.29203296 5.37231161 1 2 C0.67 1.34 0.34 0.68 0 0 Z " fill="#51A769" transform="translate(286,469)"/>
<path d="M0 0 C0.83414558 2.38480081 1.11903995 3.63319086 0.328125 6.0703125 C-0.02765625 6.74835938 -0.3834375 7.42640625 -0.75 8.125 C-1.09546875 8.80820312 -1.4409375 9.49140625 -1.796875 10.1953125 C-3 12 -3 12 -6 14 C-6.33 13.01 -6.66 12.02 -7 11 C-6.01 11 -5.02 11 -4 11 C-4 9.68 -4 8.36 -4 7 C-3.34 6.67 -2.68 6.34 -2 6 C-1.40929986 4.05396726 -1.40929986 4.05396726 -1 2 C-0.67 1.34 -0.34 0.68 0 0 Z " fill="#4CA263" transform="translate(231,401)"/>
<path d="M0 0 C1.98 0.99 1.98 0.99 4 2 C4 2.99 4 3.98 4 5 C4.66 5.33 5.32 5.66 6 6 C5.67 6.99 5.34 7.98 5 9 C5.66 9 6.32 9 7 9 C7.33 10.65 7.66 12.3 8 14 C7.01 13.67 6.02 13.34 5 13 C3.8671875 10.56640625 3.8671875 10.56640625 2.875 7.5625 C1.61330463 3.70795033 1.61330463 3.70795033 0 0 Z " fill="#CDEFD9" transform="translate(322,331)"/>
<path d="M0 0 C4.8 3.44615385 4.8 3.44615385 5.8125 6.25 C5.874375 6.8275 5.93625 7.405 6 8 C5.01 8.495 5.01 8.495 4 9 C4 8.01 4 7.02 4 6 C2.35 5.67 0.7 5.34 -1 5 C-0.67 3.35 -0.34 1.7 0 0 Z " fill="#257B4E" transform="translate(315,230)"/>
<path d="M0 0 C0.66 0 1.32 0 2 0 C3.06924537 3.20773612 3.16684956 5.62984818 3.1875 9 C3.20167969 10.051875 3.21585937 11.10375 3.23046875 12.1875 C3 15 3 15 1 18 C0.34 17.67 -0.32 17.34 -1 17 C-0.67386719 16.4328125 -0.34773438 15.865625 -0.01171875 15.28125 C1.08943661 12.79833599 1.23828102 11.19601054 1.1875 8.5 C1.18105469 7.7471875 1.17460937 6.994375 1.16796875 6.21875 C1.00303563 4.04009857 0.59600906 2.09795189 0 0 Z " fill="#DEF5E3" transform="translate(412,599)"/>
<path d="M0 0 C3.83325416 1.45399296 5.28279605 3.3080115 7 7 C7.1875 9.8125 7.1875 9.8125 7 12 C6.34 11.01 5.68 10.02 5 9 C3.96574559 7.59866565 2.92364688 6.20309695 1.875 4.8125 C1.33617187 4.09707031 0.79734375 3.38164062 0.2421875 2.64453125 C-0.37269531 1.83048828 -0.37269531 1.83048828 -1 1 C-0.67 0.67 -0.34 0.34 0 0 Z " fill="#D8F4DC" transform="translate(225,490)"/>
<path d="M0 0 C0.33 0.99 0.66 1.98 1 3 C-0.94830271 6.3399475 -2.98447394 9.53275141 -6 12 C-6.66 12 -7.32 12 -8 12 C-8 11.01 -8 10.02 -8 9 C-7.01 9 -6.02 9 -5 9 C-5 8.01 -5 7.02 -5 6 C-4.01 6 -3.02 6 -2 6 C-1.34 4.02 -0.68 2.04 0 0 Z " fill="#25774F" transform="translate(506,355)"/>
<path d="M0 0 C1.32 0.33 2.64 0.66 4 1 C3.59007812 1.47050781 3.18015625 1.94101562 2.7578125 2.42578125 C1.94957031 3.35970703 1.94957031 3.35970703 1.125 4.3125 C0.59132813 4.92738281 0.05765625 5.54226563 -0.4921875 6.17578125 C-2.1640447 8.13498212 -2.1640447 8.13498212 -4 11 C-4.20140476 7.37471432 -3.85776765 5.13498292 -2 2 C-1.34 2 -0.68 2 0 2 C0 1.34 0 0.68 0 0 Z " fill="#E0F4E9" transform="translate(465,327)"/>
<path d="M0 0 C2.22698735 3.34048103 2.2711921 4.53285581 2.25 8.4375 C2.25515625 9.38496094 2.2603125 10.33242188 2.265625 11.30859375 C1.99748089 14.02552453 1.38531142 15.67465583 0 18 C-0.33 18 -0.66 18 -1 18 C-1.042721 16.33388095 -1.04063832 14.66617115 -1 13 C-0.67 12.67 -0.34 12.34 0 12 C0.07244053 9.98035801 0.08377188 7.95832876 0.0625 5.9375 C0.05347656 4.83277344 0.04445312 3.72804688 0.03515625 2.58984375 C0.02355469 1.73519531 0.01195312 0.88054687 0 0 Z " fill="#3F915F" transform="translate(230,288)"/>
<path d="M0 0 C1.12910483 2.77143913 1.08085185 3.80024836 -0.0625 6.625 C-2.44784027 9.54896549 -4.38851165 10.11719174 -8 11 C-8 10.34 -8 9.68 -8 9 C-6.49802644 7.75923923 -4.99387685 6.52078183 -3.46875 5.30859375 C-1.71339865 3.74465039 -0.81385136 2.19739866 0 0 Z " fill="#DEF3E6" transform="translate(502,252)"/>
<path d="M0 0 C2 0 2 0 4 1.75 C5.82724411 3.80564962 6.81982337 5.55534842 8 8 C8.66 8.33 9.32 8.66 10 9 C10 9.66 10 10.32 10 11 C5.78771439 9.43989422 3.65453155 6.5154607 1 3 C0.67 2.01 0.34 1.02 0 0 Z " fill="#50A068" transform="translate(372,512)"/>
<path d="M0 0 C1.65 0 3.3 0 5 0 C3.73046875 1.49739583 2.4609375 2.99479167 1.19140625 4.4921875 C-0.0878152 6.00594079 -0.0878152 6.00594079 -1 8 C-1.99 8.33 -2.98 8.66 -4 9 C-2.80100302 5.9168649 -1.52299523 2.93720508 0 0 Z " fill="#349D50" transform="translate(287,432)"/>
<path d="M0 0 C3.4531869 2.95987448 5.78915209 6.56207108 6.1875 11.16796875 C6.1875 13.1129836 6.10046991 15.05758178 6 17 C5.67 17 5.34 17 5 17 C4.67 14.03 4.34 11.06 4 8 C3.34 8 2.68 8 2 8 C1.34 5.36 0.68 2.72 0 0 Z " fill="#447C60" transform="translate(408,178)"/>
<path d="M0 0 C1.65 0 3.3 0 5 0 C4.64950425 3.24208567 4.43778819 4.61527704 1.9375 6.8125 C1.298125 7.204375 0.65875 7.59625 0 8 C0 5.36 0 2.72 0 0 Z " fill="#1B7649" transform="translate(411,306)"/>
<path d="M0 0 C0.99 0 1.98 0 3 0 C1.73058503 3.91402949 0.48832306 5.79072873 -3 8 C-2.25 2.25 -2.25 2.25 0 0 Z " fill="#226B48" transform="translate(380,178)"/>
<path d="M0 0 C0.33 0 0.66 0 1 0 C1.33 4.29 1.66 8.58 2 13 C0.68 13.33 -0.64 13.66 -2 14 C-1.34 9.38 -0.68 4.76 0 0 Z " fill="#DBF5E0" transform="translate(322,551)"/>
<path d="M0 0 C0.66 0.33 1.32 0.66 2 1 C1.04956626 2.33897583 0.08940853 3.67105427 -0.875 5 C-1.40867187 5.7425 -1.94234375 6.485 -2.4921875 7.25 C-3.23855469 8.11625 -3.23855469 8.11625 -4 9 C-4.66 9 -5.32 9 -6 9 C-4.68775452 5.06326356 -3.08089673 2.77280706 0 0 Z " fill="#296A4B" transform="translate(562,380)"/>
<path d="M0 0 C2.475 0.495 2.475 0.495 5 1 C5.33 3.97 5.66 6.94 6 10 C3.47650757 6.87567603 1.72743854 3.61939504 0 0 Z " fill="#E3F5EA" transform="translate(503,329)"/>
<path d="M0 0 C0.33 0 0.66 0 1 0 C1.13277344 0.67546875 1.26554688 1.3509375 1.40234375 2.046875 C1.57894531 2.93890625 1.75554688 3.8309375 1.9375 4.75 C2.11152344 5.63171875 2.28554688 6.5134375 2.46484375 7.421875 C2.92368488 9.63235053 3.43336074 11.81512068 4 14 C3.01 14.495 3.01 14.495 2 15 C-0.02558881 11.65060119 -0.21738987 9.13037449 -0.125 5.25 C-0.09792969 3.77273438 -0.09792969 3.77273438 -0.0703125 2.265625 C-0.04710937 1.51796875 -0.02390625 0.7703125 0 0 Z " fill="#2E7152" transform="translate(554,291)"/>
<path d="M0 0 C4.22271781 2.53363068 6.78310162 4.56620325 9 9 C7.02 8.34 5.04 7.68 3 7 C3 5.68 3 4.36 3 3 C2.01 2.67 1.02 2.34 0 2 C0 1.34 0 0.68 0 0 Z " fill="#2A6548" transform="translate(582,279)"/>
<path d="M0 0 C1.11375 0.495 1.11375 0.495 2.25 1 C5.13883312 2.22782871 5.13883312 2.22782871 9 2 C8.67 2.99 8.34 3.98 8 5 C5.36 4.67 2.72 4.34 0 4 C0 2.68 0 1.36 0 0 Z " fill="#26834F" transform="translate(407,372)"/>
<path d="M0 0 C-0.33 1.65 -0.66 3.3 -1 5 C-3.64 3.68 -6.28 2.36 -9 1 C-9 0.67 -9 0.34 -9 0 C-3.375 -1.125 -3.375 -1.125 0 0 Z " fill="#D6ECDF" transform="translate(502,323)"/>
<path d="M0 0 C0.33 0 0.66 0 1 0 C1.13277344 0.67546875 1.26554688 1.3509375 1.40234375 2.046875 C1.57894531 2.93890625 1.75554688 3.8309375 1.9375 4.75 C2.11152344 5.63171875 2.28554688 6.5134375 2.46484375 7.421875 C2.92368488 9.63235053 3.43336074 11.81512068 4 14 C3.01 14 2.02 14 1 14 C0.06380187 10.84493858 -0.1057123 8.03413498 -0.0625 4.75 C-0.05347656 3.85796875 -0.04445313 2.9659375 -0.03515625 2.046875 C-0.02355469 1.37140625 -0.01195312 0.6959375 0 0 Z " fill="#D5EDE0" transform="translate(553,294)"/>
<path d="M0 0 C1.79068573 2.6860286 2.66055791 4.6626589 3.625 7.6875 C3.88539063 8.49574219 4.14578125 9.30398438 4.4140625 10.13671875 C4.60742188 10.75160156 4.80078125 11.36648438 5 12 C2.69857565 10.21825212 1.19965609 8.83695835 0.51171875 5.953125 C0.27676898 3.9753389 0.13248542 1.98728128 0 0 Z " fill="#227A4F" transform="translate(371,300)"/>
<path d="M0 0 C0.33 0.66 0.66 1.32 1 2 C1.66 2 2.32 2 3 2 C4.6875 3.8125 4.6875 3.8125 6 6 C5.67 6.99 5.34 7.98 5 9 C2.33333333 6.33333333 -0.33333333 3.66666667 -3 1 C-2.01 0.67 -1.02 0.34 0 0 Z " fill="#DCF2E5" transform="translate(409,273)"/>
<path d="M0 0 C0.33 0 0.66 0 1 0 C1.12375 1.051875 1.2475 2.10375 1.375 3.1875 C1.91140782 6.45958771 2.63880035 9.00536076 4 12 C3.01 12.495 3.01 12.495 2 13 C0.21590198 9.93753253 -0.22880021 7.77920727 -0.125 4.25 C-0.10695313 3.45078125 -0.08890625 2.6515625 -0.0703125 1.828125 C-0.04710937 1.22484375 -0.02390625 0.6215625 0 0 Z " fill="#70B682" transform="translate(283,552)"/>
<path d="M0 0 C0.99 0.33 1.98 0.66 3 1 C-0.32307692 4.93846154 -0.32307692 4.93846154 -3.75 5.25 C-4.4925 5.1675 -5.235 5.085 -6 5 C-5.195625 4.360625 -4.39125 3.72125 -3.5625 3.0625 C-1.7249496 1.59396498 -1.7249496 1.59396498 0 0 Z " fill="#E7F8E4" transform="translate(226,521)"/>
<path d="M0 0 C-1.64169528 2.02054804 -3.30911778 4.02043058 -5 6 C-5.33 6 -5.66 6 -6 6 C-6 4.02 -6 2.04 -6 0 C-3.50907189 -1.24546405 -2.58919267 -0.7767578 0 0 Z " fill="#DCF5E6" transform="translate(561,493)"/>
<path d="M0 0 C0.33 0.99 0.66 1.98 1 3 C-1.25 4.5625 -1.25 4.5625 -4 6 C-5.32 5.67 -6.64 5.34 -8 5 C-4.04 2.525 -4.04 2.525 0 0 Z " fill="#DCF7E3" transform="translate(320,469)"/>
<path d="M0 0 C1.98 0 3.96 0 6 0 C5.67 0.99 5.34 1.98 5 3 C2.36 3 -0.28 3 -3 3 C-2.01 2.67 -1.02 2.34 0 2 C0 1.34 0 0.68 0 0 Z " fill="#3E7D5D" transform="translate(573,413)"/>
<path d="M0 0 C2.97 1.65 5.94 3.3 9 5 C7.02 5.99 7.02 5.99 5 7 C3.5 5.625 3.5 5.625 2 4 C2 3.34 2 2.68 2 2 C1.34 2 0.68 2 0 2 C0 1.34 0 0.68 0 0 Z " fill="#D8F0DF" transform="translate(322,369)"/>
<path d="M0 0 C0.33 0.99 0.66 1.98 1 3 C-1.25 5.0625 -1.25 5.0625 -4 7 C-6.3125 6.75 -6.3125 6.75 -8 6 C-7.05125 5.38125 -6.1025 4.7625 -5.125 4.125 C-2.05554891 2.18029031 -2.05554891 2.18029031 0 0 Z " fill="#D8F5E2" transform="translate(228,308)"/>
<path d="M0 0 C2.99324263 1.0975223 3.84610901 1.67682892 5.25 4.625 C5.4975 5.40875 5.745 6.1925 6 7 C4.125 6.875 4.125 6.875 2 6 C0.75 2.9375 0.75 2.9375 0 0 Z " fill="#2E7B55" transform="translate(410,278)"/>
<path d="M0 0 C0.66 0.33 1.32 0.66 2 1 C-0.25 3.5625 -0.25 3.5625 -3 6 C-4.32 5.67 -5.64 5.34 -7 5 C-4.69 3.35 -2.38 1.7 0 0 Z " fill="#34805A" transform="translate(384,273)"/>
<path d="M0 0 C0.66 0.33 1.32 0.66 2 1 C-1.75 6.875 -1.75 6.875 -4 8 C-4 6.35 -4 4.7 -4 3 C-3.01 2.67 -2.02 2.34 -1 2 C-0.67 1.34 -0.34 0.68 0 0 Z " fill="#358A5B" transform="translate(505,462)"/>
<path d="M0 0 C4.455 0.99 4.455 0.99 9 2 C8.34 3.32 7.68 4.64 7 6 C5.83054208 5.19152271 4.66449539 4.37810888 3.5 3.5625 C2.8503125 3.11003906 2.200625 2.65757812 1.53125 2.19140625 C1.0259375 1.79824219 0.520625 1.40507812 0 1 C0 0.67 0 0.34 0 0 Z " fill="#D4F0DD" transform="translate(330,345)"/>
<path d="M0 0 C1.45792884 -0.05399736 2.91642712 -0.09279177 4.375 -0.125 C5.18710937 -0.14820313 5.99921875 -0.17140625 6.8359375 -0.1953125 C9 0 9 0 11 2 C4.6 3.35384615 4.6 3.35384615 1.5625 1.5625 C1.046875 1.046875 0.53125 0.53125 0 0 Z " fill="#187346" transform="translate(484,323)"/>
<path d="M0 0 C4.875 4.75 4.875 4.75 6 7 C4.35 6.67 2.7 6.34 1 6 C0.67 4.02 0.34 2.04 0 0 Z " fill="#DCF4E7" transform="translate(372,309)"/>
<path d="M0 0 C0.66 0.33 1.32 0.66 2 1 C-3.14285714 5.42857143 -3.14285714 5.42857143 -7 6 C-7 5.34 -7 4.68 -7 4 C-4.66633067 1.98821609 -2.95214486 0.98404829 0 0 Z " fill="#3C9060" transform="translate(225,309)"/>
<path d="M0 0 C2.475 0.495 2.475 0.495 5 1 C5.33 2.32 5.66 3.64 6 5 C3.5625 4.1875 3.5625 4.1875 1 3 C0.67 2.01 0.34 1.02 0 0 Z " fill="#379A62" transform="translate(201,310)"/>
<path d="M0 0 C1.32 1.32 2.64 2.64 4 4 C3.01 5.485 3.01 5.485 2 7 C1.01 6.67 0.02 6.34 -1 6 C-0.67 4.02 -0.34 2.04 0 0 Z " fill="#E2F1E7" transform="translate(556,517)"/>
<path d="M0 0 C1.32 0.33 2.64 0.66 4 1 C2.7260411 3.03833424 1.38938077 5.03852126 0 7 C-0.66 7 -1.32 7 -2 7 C-1.34 4.69 -0.68 2.38 0 0 Z " fill="#E6F7EC" transform="translate(593,509)"/>
<path d="M0 0 C0.66 0 1.32 0 2 0 C0.125 4.875 0.125 4.875 -1 6 C-2.66617115 6.04063832 -4.33388095 6.042721 -6 6 C-5.195625 5.38125 -4.39125 4.7625 -3.5625 4.125 C-0.96125481 2.25835959 -0.96125481 2.25835959 0 0 Z " fill="#439B5C" transform="translate(294,426)"/>
<path d="M0 0 C6.875 3.75 6.875 3.75 8 6 C5.125 5.8125 5.125 5.8125 2 5 C0.625 2.4375 0.625 2.4375 0 0 Z " fill="#378A5C" transform="translate(362,367)"/>
<path d="M0 0 C2.31 0 4.62 0 7 0 C4.6875 2.0625 4.6875 2.0625 2 4 C1.01 3.67 0.02 3.34 -1 3 C-0.67 2.01 -0.34 1.02 0 0 Z " fill="#2D8156" transform="translate(402,316)"/>
<path d="M0 0 C0.33 0.66 0.66 1.32 1 2 C0.22265625 3.7265625 0.22265625 3.7265625 -0.9375 5.625 C-1.618125 6.73875 -2.29875 7.8525 -3 9 C-3.33 8.34 -3.66 7.68 -4 7 C-4.66 6.67 -5.32 6.34 -6 6 C-4 4 -2 2 0 0 Z " fill="#DDF5E2" transform="translate(319,566)"/>
<path d="M0 0 C0.66 0.33 1.32 0.66 2 1 C2 2.32 2 3.64 2 5 C1.34 5 0.68 5 0 5 C-0.33 5.66 -0.66 6.32 -1 7 C-1.625 5.1875 -1.625 5.1875 -2 3 C-1.34 2.01 -0.68 1.02 0 0 Z " fill="#2B9A4D" transform="translate(323,441)"/>
<path d="M0 0 C0 3 0 3 -1 5 C-1.66 5 -2.32 5 -3 5 C-3.33 5.66 -3.66 6.32 -4 7 C-4 6.34 -4 5.68 -4 5 C-4.66 4.67 -5.32 4.34 -6 4 C-4.02 2.68 -2.04 1.36 0 0 Z " fill="#D9F1E1" transform="translate(415,423)"/>
<path d="M0 0 C-2.31 1.32 -4.62 2.64 -7 4 C-6.625 2.0625 -6.625 2.0625 -6 0 C-3.50907189 -1.24546405 -2.58919267 -0.7767578 0 0 Z " fill="#DCF0E3" transform="translate(440,358)"/>
<path d="M0 0 C1.32 0.66 2.64 1.32 4 2 C2.02 2.99 0.04 3.98 -2 5 C-2.66 4.34 -3.32 3.68 -4 3 C-2.68 2.01 -1.36 1.02 0 0 Z " fill="#257A4D" transform="translate(472,325)"/>
<path d="M0 0 C1.49403054 2.98806107 2.79310745 5.89656201 4 9 C2.68 9.33 1.36 9.66 0 10 C0 6.7 0 3.4 0 0 Z " fill="#DAF5E5" transform="translate(193,299)"/>
<path d="M0 0 C0.33 0.99 0.66 1.98 1 3 C-2.4352048 5.29013653 -3.985331 5.17842973 -8 5 C-5.37352812 3.24901874 -2.71224618 1.61268692 0 0 Z " fill="#CDE8D8" transform="translate(407,206)"/>
</svg>
